<svg width="66" height="10" viewBox="0 0 66 10" fill="none" xmlns="http://www.w3.org/2000/svg">
<g id="Group 25">
<g id="Vector">
<mask id="path-1-inside-1_140_63" fill="white">
<path d="M5.41395 0.874556L6.60212 3.00503C6.63519 3.06432 6.68404 3.1156 6.74448 3.15445C6.80491 3.19331 6.87512 3.21857 6.94904 3.22807L9.6055 3.56976C9.69059 3.5807 9.77053 3.6125 9.83627 3.66155C9.902 3.7106 9.95092 3.77496 9.97747 3.84734C10.004 3.91972 10.0072 3.99724 9.98654 4.07111C9.96591 4.14499 9.92233 4.21228 9.86073 4.26538L7.93818 5.92369C7.82946 6.01747 7.78016 6.15243 7.8055 6.28454L8.2593 8.62624C8.27382 8.70122 8.26434 8.77831 8.23194 8.84877C8.19955 8.91924 8.14552 8.98028 8.07597 9.02499C8.00642 9.06971 7.92413 9.09631 7.83839 9.10178C7.75265 9.10726 7.66689 9.09141 7.59081 9.056L5.21446 7.95019C5.1483 7.91947 5.07471 7.90343 5 7.90343C4.92529 7.90343 4.8517 7.91947 4.78554 7.95019L2.40919 9.056C2.33311 9.09141 2.24735 9.10726 2.16161 9.10178C2.07587 9.09631 1.99358 9.06971 1.92403 9.02499C1.85448 8.98028 1.80045 8.91924 1.76806 8.84877C1.73566 8.77831 1.72618 8.70122 1.7407 8.62624L2.1945 6.28454C2.20713 6.21938 2.20166 6.15248 2.17854 6.08961C2.15542 6.02674 2.11536 5.96979 2.06182 5.92369L0.139268 4.26538C0.0776698 4.21228 0.0340898 4.14499 0.0134584 4.07111C-0.00717299 3.99724 -0.0040323 3.91972 0.0225252 3.84734C0.0490827 3.77496 0.097997 3.7106 0.163735 3.66155C0.229472 3.6125 0.309409 3.5807 0.394502 3.56976L3.05096 3.22807C3.12488 3.21857 3.19509 3.19331 3.25552 3.15445C3.31596 3.1156 3.36481 3.06432 3.39788 3.00503L4.58605 0.874556C4.75651 0.5716 5.24487 0.5716 5.41395 0.874556Z"/>
</mask>
<path d="M5.41395 0.874556L6.60212 3.00503C6.63519 3.06432 6.68404 3.1156 6.74448 3.15445C6.80491 3.19331 6.87512 3.21857 6.94904 3.22807L9.6055 3.56976C9.69059 3.5807 9.77053 3.6125 9.83627 3.66155C9.902 3.7106 9.95092 3.77496 9.97747 3.84734C10.004 3.91972 10.0072 3.99724 9.98654 4.07111C9.96591 4.14499 9.92233 4.21228 9.86073 4.26538L7.93818 5.92369C7.82946 6.01747 7.78016 6.15243 7.8055 6.28454L8.2593 8.62624C8.27382 8.70122 8.26434 8.77831 8.23194 8.84877C8.19955 8.91924 8.14552 8.98028 8.07597 9.02499C8.00642 9.06971 7.92413 9.09631 7.83839 9.10178C7.75265 9.10726 7.66689 9.09141 7.59081 9.056L5.21446 7.95019C5.1483 7.91947 5.07471 7.90343 5 7.90343C4.92529 7.90343 4.8517 7.91947 4.78554 7.95019L2.40919 9.056C2.33311 9.09141 2.24735 9.10726 2.16161 9.10178C2.07587 9.09631 1.99358 9.06971 1.92403 9.02499C1.85448 8.98028 1.80045 8.91924 1.76806 8.84877C1.73566 8.77831 1.72618 8.70122 1.7407 8.62624L2.1945 6.28454C2.20713 6.21938 2.20166 6.15248 2.17854 6.08961C2.15542 6.02674 2.11536 5.96979 2.06182 5.92369L0.139268 4.26538C0.0776698 4.21228 0.0340898 4.14499 0.0134584 4.07111C-0.00717299 3.99724 -0.0040323 3.91972 0.0225252 3.84734C0.0490827 3.77496 0.097997 3.7106 0.163735 3.66155C0.229472 3.6125 0.309409 3.5807 0.394502 3.56976L3.05096 3.22807C3.12488 3.21857 3.19509 3.19331 3.25552 3.15445C3.31596 3.1156 3.36481 3.06432 3.39788 3.00503L4.58605 0.874556C4.75651 0.5716 5.24487 0.5716 5.41395 0.874556Z" fill="white"/>
<path d="M5.41395 0.874556L6.60212 3.00503C6.63519 3.06432 6.68404 3.1156 6.74448 3.15445C6.80491 3.19331 6.87512 3.21857 6.94904 3.22807L9.6055 3.56976C9.69059 3.5807 9.77053 3.6125 9.83627 3.66155C9.902 3.7106 9.95092 3.77496 9.97747 3.84734C10.004 3.91972 10.0072 3.99724 9.98654 4.07111C9.96591 4.14499 9.92233 4.21228 9.86073 4.26538L7.93818 5.92369C7.82946 6.01747 7.78016 6.15243 7.8055 6.28454L8.2593 8.62624C8.27382 8.70122 8.26434 8.77831 8.23194 8.84877C8.19955 8.91924 8.14552 8.98028 8.07597 9.02499C8.00642 9.06971 7.92413 9.09631 7.83839 9.10178C7.75265 9.10726 7.66689 9.09141 7.59081 9.056L5.21446 7.95019C5.1483 7.91947 5.07471 7.90343 5 7.90343C4.92529 7.90343 4.8517 7.91947 4.78554 7.95019L2.40919 9.056C2.33311 9.09141 2.24735 9.10726 2.16161 9.10178C2.07587 9.09631 1.99358 9.06971 1.92403 9.02499C1.85448 8.98028 1.80045 8.91924 1.76806 8.84877C1.73566 8.77831 1.72618 8.70122 1.7407 8.62624L2.1945 6.28454C2.20713 6.21938 2.20166 6.15248 2.17854 6.08961C2.15542 6.02674 2.11536 5.96979 2.06182 5.92369L0.139268 4.26538C0.0776698 4.21228 0.0340898 4.14499 0.0134584 4.07111C-0.00717299 3.99724 -0.0040323 3.91972 0.0225252 3.84734C0.0490827 3.77496 0.097997 3.7106 0.163735 3.66155C0.229472 3.6125 0.309409 3.5807 0.394502 3.56976L3.05096 3.22807C3.12488 3.21857 3.19509 3.19331 3.25552 3.15445C3.31596 3.1156 3.36481 3.06432 3.39788 3.00503L4.58605 0.874556C4.75651 0.5716 5.24487 0.5716 5.41395 0.874556Z" fill="white"/>
<path d="M5.41395 0.874556L6.60212 3.00503C6.63519 3.06432 6.68404 3.1156 6.74448 3.15445C6.80491 3.19331 6.87512 3.21857 6.94904 3.22807L9.6055 3.56976C9.69059 3.5807 9.77053 3.6125 9.83627 3.66155C9.902 3.7106 9.95092 3.77496 9.97747 3.84734C10.004 3.91972 10.0072 3.99724 9.98654 4.07111C9.96591 4.14499 9.92233 4.21228 9.86073 4.26538L7.93818 5.92369C7.82946 6.01747 7.78016 6.15243 7.8055 6.28454L8.2593 8.62624C8.27382 8.70122 8.26434 8.77831 8.23194 8.84877C8.19955 8.91924 8.14552 8.98028 8.07597 9.02499C8.00642 9.06971 7.92413 9.09631 7.83839 9.10178C7.75265 9.10726 7.66689 9.09141 7.59081 9.056L5.21446 7.95019C5.1483 7.91947 5.07471 7.90343 5 7.90343C4.92529 7.90343 4.8517 7.91947 4.78554 7.95019L2.40919 9.056C2.33311 9.09141 2.24735 9.10726 2.16161 9.10178C2.07587 9.09631 1.99358 9.06971 1.92403 9.02499C1.85448 8.98028 1.80045 8.91924 1.76806 8.84877C1.73566 8.77831 1.72618 8.70122 1.7407 8.62624L2.1945 6.28454C2.20713 6.21938 2.20166 6.15248 2.17854 6.08961C2.15542 6.02674 2.11536 5.96979 2.06182 5.92369L0.139268 4.26538C0.0776698 4.21228 0.0340898 4.14499 0.0134584 4.07111C-0.00717299 3.99724 -0.0040323 3.91972 0.0225252 3.84734C0.0490827 3.77496 0.097997 3.7106 0.163735 3.66155C0.229472 3.6125 0.309409 3.5807 0.394502 3.56976L3.05096 3.22807C3.12488 3.21857 3.19509 3.19331 3.25552 3.15445C3.31596 3.1156 3.36481 3.06432 3.39788 3.00503L4.58605 0.874556C4.75651 0.5716 5.24487 0.5716 5.41395 0.874556Z" fill="white"/>
<path d="M5.41395 0.874556L6.60212 3.00503C6.63519 3.06432 6.68404 3.1156 6.74448 3.15445C6.80491 3.19331 6.87512 3.21857 6.94904 3.22807L9.6055 3.56976C9.69059 3.5807 9.77053 3.6125 9.83627 3.66155C9.902 3.7106 9.95092 3.77496 9.97747 3.84734C10.004 3.91972 10.0072 3.99724 9.98654 4.07111C9.96591 4.14499 9.92233 4.21228 9.86073 4.26538L7.93818 5.92369C7.82946 6.01747 7.78016 6.15243 7.8055 6.28454L8.2593 8.62624C8.27382 8.70122 8.26434 8.77831 8.23194 8.84877C8.19955 8.91924 8.14552 8.98028 8.07597 9.02499C8.00642 9.06971 7.92413 9.09631 7.83839 9.10178C7.75265 9.10726 7.66689 9.09141 7.59081 9.056L5.21446 7.95019C5.1483 7.91947 5.07471 7.90343 5 7.90343C4.92529 7.90343 4.8517 7.91947 4.78554 7.95019L2.40919 9.056C2.33311 9.09141 2.24735 9.10726 2.16161 9.10178C2.07587 9.09631 1.99358 9.06971 1.92403 9.02499C1.85448 8.98028 1.80045 8.91924 1.76806 8.84877C1.73566 8.77831 1.72618 8.70122 1.7407 8.62624L2.1945 6.28454C2.20713 6.21938 2.20166 6.15248 2.17854 6.08961C2.15542 6.02674 2.11536 5.96979 2.06182 5.92369L0.139268 4.26538C0.0776698 4.21228 0.0340898 4.14499 0.0134584 4.07111C-0.00717299 3.99724 -0.0040323 3.91972 0.0225252 3.84734C0.0490827 3.77496 0.097997 3.7106 0.163735 3.66155C0.229472 3.6125 0.309409 3.5807 0.394502 3.56976L3.05096 3.22807C3.12488 3.21857 3.19509 3.19331 3.25552 3.15445C3.31596 3.1156 3.36481 3.06432 3.39788 3.00503L4.58605 0.874556C4.75651 0.5716 5.24487 0.5716 5.41395 0.874556Z" fill="#FBF8FA"/>
<path d="M5.41395 0.874556L6.28731 0.387481L6.28716 0.387214L5.41395 0.874556ZM6.60212 3.00503L5.72876 3.49211L5.72877 3.49212L6.60212 3.00503ZM6.94904 3.22807L7.07661 2.23624L7.07651 2.23623L6.94904 3.22807ZM9.6055 3.56976L9.47792 4.56159L9.47802 4.56161L9.6055 3.56976ZM9.86073 4.26538L9.20783 3.50794L9.20758 3.50815L9.86073 4.26538ZM7.93818 5.92369L8.59133 6.68092L8.59134 6.68092L7.93818 5.92369ZM7.8055 6.28454L6.8234 6.47291L6.82376 6.4748L7.8055 6.28454ZM8.2593 8.62624L9.24107 8.43617L9.24104 8.43598L8.2593 8.62624ZM7.59081 9.056L7.16891 9.96265L7.16893 9.96265L7.59081 9.056ZM5.21446 7.95019L5.63636 7.04355L5.63559 7.04319L5.21446 7.95019ZM4.78554 7.95019L4.36441 7.04319L4.36364 7.04355L4.78554 7.95019ZM2.40919 9.056L2.83107 9.96265L2.83109 9.96265L2.40919 9.056ZM1.7407 8.62624L0.758965 8.43598L0.758929 8.43617L1.7407 8.62624ZM2.1945 6.28454L1.21278 6.09421L1.21277 6.09429L2.1945 6.28454ZM2.06182 5.92369L1.40866 6.68092L1.40934 6.6815L2.06182 5.92369ZM0.139268 4.26538L0.79242 3.50815L0.792166 3.50794L0.139268 4.26538ZM0.394502 3.56976L0.521977 4.56161L0.522078 4.56159L0.394502 3.56976ZM3.05096 3.22807L2.92349 2.23623L2.92339 2.23624L3.05096 3.22807ZM3.39788 3.00503L4.27123 3.49212L4.27124 3.49211L3.39788 3.00503ZM4.58605 0.874556L3.71453 0.384181L3.71269 0.387481L4.58605 0.874556ZM4.54059 1.36163L5.72876 3.49211L7.47548 2.51796L6.28731 0.387481L4.54059 1.36163ZM5.72877 3.49212C5.84659 3.70338 6.01332 3.87322 6.20368 3.99561L7.28527 2.31329C7.35476 2.35797 7.42378 2.42525 7.47548 2.51795L5.72877 3.49212ZM6.20368 3.99561C6.39371 4.11778 6.60605 4.19222 6.82156 4.21991L7.07651 2.23623C7.14418 2.24493 7.21611 2.26883 7.28527 2.31329L6.20368 3.99561ZM6.82146 4.2199L9.47792 4.56159L9.73307 2.57794L7.07661 2.23624L6.82146 4.2199ZM9.47802 4.56161C9.40064 4.55166 9.31678 4.52164 9.2382 4.463L10.4343 2.8601C10.2243 2.70336 9.98055 2.60974 9.73297 2.57792L9.47802 4.56161ZM9.2382 4.463C9.15885 4.40378 9.08329 4.31341 9.03867 4.1918L10.9163 3.50288C10.8185 3.23651 10.6452 3.01743 10.4343 2.8601L9.2382 4.463ZM9.03867 4.1918C8.9934 4.06841 8.98731 3.93135 9.02339 3.80214L10.9497 4.34009C11.027 4.06312 11.0147 3.77104 10.9163 3.50288L9.03867 4.1918ZM9.02339 3.80214C9.05904 3.6745 9.12959 3.57538 9.20783 3.50794L10.5136 5.02283C10.7151 4.84919 10.8728 4.61548 10.9497 4.34009L9.02339 3.80214ZM9.20758 3.50815L7.28503 5.16646L8.59134 6.68092L10.5139 5.02261L9.20758 3.50815ZM7.28504 5.16645C6.9255 5.47657 6.72582 5.96414 6.8234 6.47291L8.7876 6.09618C8.8345 6.34072 8.73341 6.55837 8.59133 6.68092L7.28504 5.16645ZM6.82376 6.4748L7.27757 8.81649L9.24104 8.43598L8.78724 6.09429L6.82376 6.4748ZM7.27753 8.81631C7.25165 8.68265 7.26988 8.5474 7.32337 8.43105L9.14052 9.2665C9.25881 9.00921 9.29598 8.7198 9.24107 8.43617L7.27753 8.81631ZM7.32337 8.43105C7.376 8.31658 7.45535 8.23516 7.53519 8.18383L8.61675 9.86616C8.83569 9.7254 9.02309 9.52191 9.14052 9.2665L7.32337 8.43105ZM7.53519 8.18383C7.61443 8.13289 7.6975 8.10875 7.77461 8.10382L7.90217 10.0997C8.15076 10.0839 8.39842 10.0065 8.61675 9.86616L7.53519 8.18383ZM7.77461 8.10382C7.85171 8.09889 7.93336 8.11244 8.01269 8.14935L7.16893 9.96265C7.40042 10.0704 7.65359 10.1156 7.90217 10.0997L7.77461 8.10382ZM8.01271 8.14936L5.63636 7.04355L4.79256 8.85684L7.16891 9.96265L8.01271 8.14936ZM5.63559 7.04319C5.43424 6.9497 5.21655 6.90343 5 6.90343V8.90343C4.93287 8.90343 4.86236 8.88925 4.79333 8.85719L5.63559 7.04319ZM5 6.90343C4.78345 6.90343 4.56576 6.9497 4.36441 7.04319L5.20667 8.85719C5.13764 8.88925 5.06713 8.90343 5 8.90343V6.90343ZM4.36364 7.04355L1.98729 8.14936L2.83109 9.96265L5.20744 8.85684L4.36364 7.04355ZM1.98731 8.14935C2.06664 8.11244 2.14829 8.09889 2.22539 8.10382L2.09783 10.0997C2.34641 10.1156 2.59958 10.0704 2.83107 9.96265L1.98731 8.14935ZM2.22539 8.10382C2.3025 8.10875 2.38558 8.13289 2.46481 8.18383L1.38325 9.86616C1.60158 10.0065 1.84924 10.0839 2.09783 10.0997L2.22539 8.10382ZM2.46481 8.18383C2.54465 8.23516 2.624 8.31658 2.67663 8.43105L0.859481 9.2665C0.976908 9.52191 1.16431 9.7254 1.38325 9.86616L2.46481 8.18383ZM2.67663 8.43105C2.73012 8.5474 2.74835 8.68265 2.72247 8.81631L0.758929 8.43617C0.704019 8.7198 0.741196 9.00922 0.859481 9.2665L2.67663 8.43105ZM2.72243 8.81649L3.17624 6.4748L1.21277 6.09429L0.758965 8.43598L2.72243 8.81649ZM3.17622 6.47487C3.22391 6.22891 3.20256 5.97691 3.1171 5.7445L1.23997 6.43471C1.20075 6.32804 1.19036 6.20986 1.21278 6.09421L3.17622 6.47487ZM3.1171 5.7445C3.03203 5.51314 2.88943 5.31668 2.71429 5.16588L1.40934 6.6815C1.34129 6.62291 1.27881 6.54033 1.23997 6.43471L3.1171 5.7445ZM2.71497 5.16646L0.79242 3.50815L-0.513883 5.02261L1.40866 6.68092L2.71497 5.16646ZM0.792166 3.50794C0.870408 3.57538 0.94096 3.6745 0.976606 3.80214L-0.949689 4.34009C-0.87278 4.61548 -0.715068 4.84919 -0.51363 5.02283L0.792166 3.50794ZM0.976606 3.80214C1.01269 3.93135 1.0066 4.06841 0.961325 4.1918L-0.916275 3.50288C-1.01467 3.77104 -1.02704 4.06312 -0.949689 4.34009L0.976606 3.80214ZM0.961325 4.1918C0.916703 4.31342 0.841149 4.40379 0.761796 4.463L-0.434327 2.8601C-0.645155 3.01742 -0.818538 3.23651 -0.916275 3.50288L0.961325 4.1918ZM0.761796 4.463C0.683221 4.52164 0.599362 4.55166 0.521977 4.56161L0.267028 2.57792C0.0194555 2.60974 -0.224277 2.70336 -0.434327 2.8601L0.761796 4.463ZM0.522078 4.56159L3.17854 4.2199L2.92339 2.23624L0.266926 2.57794L0.522078 4.56159ZM3.17844 4.21991C3.39395 4.19222 3.60629 4.11778 3.79632 3.99561L2.71473 2.31329C2.78389 2.26883 2.85582 2.24493 2.92349 2.23623L3.17844 4.21991ZM3.79632 3.99561C3.98668 3.87322 4.15341 3.70338 4.27123 3.49212L2.52452 2.51795C2.57622 2.42525 2.64524 2.35797 2.71473 2.31329L3.79632 3.99561ZM4.27124 3.49211L5.45941 1.36163L3.71269 0.387481L2.52452 2.51796L4.27124 3.49211ZM5.45757 1.36493C5.33137 1.58921 5.1214 1.64734 5.00052 1.64734C4.87971 1.64734 4.66749 1.589 4.54074 1.3619L6.28716 0.387214C5.99133 -0.142847 5.45039 -0.352661 5.00052 -0.352661C4.55057 -0.352661 4.0112 -0.143052 3.71454 0.384185L5.45757 1.36493Z" fill="#FC53EC" mask="url(#path-1-inside-1_140_63)"/>
</g>
<g id="Vector_2">
<mask id="path-3-inside-2_140_63" fill="white">
<path d="M19.4139 0.874556L20.6021 3.00503C20.6352 3.06432 20.684 3.1156 20.7445 3.15445C20.8049 3.19331 20.8751 3.21857 20.949 3.22807L23.6055 3.56976C23.6906 3.5807 23.7705 3.6125 23.8363 3.66155C23.902 3.7106 23.9509 3.77496 23.9775 3.84734C24.004 3.91972 24.0072 3.99724 23.9865 4.07111C23.9659 4.14499 23.9223 4.21228 23.8607 4.26538L21.9382 5.92369C21.8295 6.01747 21.7802 6.15243 21.8055 6.28454L22.2593 8.62624C22.2738 8.70122 22.2643 8.77831 22.2319 8.84877C22.1995 8.91924 22.1455 8.98028 22.076 9.02499C22.0064 9.06971 21.9241 9.09631 21.8384 9.10178C21.7527 9.10726 21.6669 9.09141 21.5908 9.056L19.2145 7.95019C19.1483 7.91947 19.0747 7.90343 19 7.90343C18.9253 7.90343 18.8517 7.91947 18.7855 7.95019L16.4092 9.056C16.3331 9.09141 16.2473 9.10726 16.1616 9.10178C16.0759 9.09631 15.9936 9.06971 15.924 9.02499C15.8545 8.98028 15.8005 8.91924 15.7681 8.84877C15.7357 8.77831 15.7262 8.70122 15.7407 8.62624L16.1945 6.28454C16.2071 6.21938 16.2017 6.15248 16.1785 6.08961C16.1554 6.02674 16.1154 5.96979 16.0618 5.92369L14.1393 4.26538C14.0777 4.21228 14.0341 4.14499 14.0135 4.07111C13.9928 3.99724 13.996 3.91972 14.0225 3.84734C14.0491 3.77496 14.098 3.7106 14.1637 3.66155C14.2295 3.6125 14.3094 3.5807 14.3945 3.56976L17.051 3.22807C17.1249 3.21857 17.1951 3.19331 17.2555 3.15445C17.316 3.1156 17.3648 3.06432 17.3979 3.00503L18.5861 0.874556C18.7565 0.5716 19.2449 0.5716 19.4139 0.874556Z"/>
</mask>
<path d="M19.4139 0.874556L20.6021 3.00503C20.6352 3.06432 20.684 3.1156 20.7445 3.15445C20.8049 3.19331 20.8751 3.21857 20.949 3.22807L23.6055 3.56976C23.6906 3.5807 23.7705 3.6125 23.8363 3.66155C23.902 3.7106 23.9509 3.77496 23.9775 3.84734C24.004 3.91972 24.0072 3.99724 23.9865 4.07111C23.9659 4.14499 23.9223 4.21228 23.8607 4.26538L21.9382 5.92369C21.8295 6.01747 21.7802 6.15243 21.8055 6.28454L22.2593 8.62624C22.2738 8.70122 22.2643 8.77831 22.2319 8.84877C22.1995 8.91924 22.1455 8.98028 22.076 9.02499C22.0064 9.06971 21.9241 9.09631 21.8384 9.10178C21.7527 9.10726 21.6669 9.09141 21.5908 9.056L19.2145 7.95019C19.1483 7.91947 19.0747 7.90343 19 7.90343C18.9253 7.90343 18.8517 7.91947 18.7855 7.95019L16.4092 9.056C16.3331 9.09141 16.2473 9.10726 16.1616 9.10178C16.0759 9.09631 15.9936 9.06971 15.924 9.02499C15.8545 8.98028 15.8005 8.91924 15.7681 8.84877C15.7357 8.77831 15.7262 8.70122 15.7407 8.62624L16.1945 6.28454C16.2071 6.21938 16.2017 6.15248 16.1785 6.08961C16.1554 6.02674 16.1154 5.96979 16.0618 5.92369L14.1393 4.26538C14.0777 4.21228 14.0341 4.14499 14.0135 4.07111C13.9928 3.99724 13.996 3.91972 14.0225 3.84734C14.0491 3.77496 14.098 3.7106 14.1637 3.66155C14.2295 3.6125 14.3094 3.5807 14.3945 3.56976L17.051 3.22807C17.1249 3.21857 17.1951 3.19331 17.2555 3.15445C17.316 3.1156 17.3648 3.06432 17.3979 3.00503L18.5861 0.874556C18.7565 0.5716 19.2449 0.5716 19.4139 0.874556Z" fill="white"/>
<path d="M19.4139 0.874556L20.6021 3.00503C20.6352 3.06432 20.684 3.1156 20.7445 3.15445C20.8049 3.19331 20.8751 3.21857 20.949 3.22807L23.6055 3.56976C23.6906 3.5807 23.7705 3.6125 23.8363 3.66155C23.902 3.7106 23.9509 3.77496 23.9775 3.84734C24.004 3.91972 24.0072 3.99724 23.9865 4.07111C23.9659 4.14499 23.9223 4.21228 23.8607 4.26538L21.9382 5.92369C21.8295 6.01747 21.7802 6.15243 21.8055 6.28454L22.2593 8.62624C22.2738 8.70122 22.2643 8.77831 22.2319 8.84877C22.1995 8.91924 22.1455 8.98028 22.076 9.02499C22.0064 9.06971 21.9241 9.09631 21.8384 9.10178C21.7527 9.10726 21.6669 9.09141 21.5908 9.056L19.2145 7.95019C19.1483 7.91947 19.0747 7.90343 19 7.90343C18.9253 7.90343 18.8517 7.91947 18.7855 7.95019L16.4092 9.056C16.3331 9.09141 16.2473 9.10726 16.1616 9.10178C16.0759 9.09631 15.9936 9.06971 15.924 9.02499C15.8545 8.98028 15.8005 8.91924 15.7681 8.84877C15.7357 8.77831 15.7262 8.70122 15.7407 8.62624L16.1945 6.28454C16.2071 6.21938 16.2017 6.15248 16.1785 6.08961C16.1554 6.02674 16.1154 5.96979 16.0618 5.92369L14.1393 4.26538C14.0777 4.21228 14.0341 4.14499 14.0135 4.07111C13.9928 3.99724 13.996 3.91972 14.0225 3.84734C14.0491 3.77496 14.098 3.7106 14.1637 3.66155C14.2295 3.6125 14.3094 3.5807 14.3945 3.56976L17.051 3.22807C17.1249 3.21857 17.1951 3.19331 17.2555 3.15445C17.316 3.1156 17.3648 3.06432 17.3979 3.00503L18.5861 0.874556C18.7565 0.5716 19.2449 0.5716 19.4139 0.874556Z" fill="white"/>
<path d="M19.4139 0.874556L20.6021 3.00503C20.6352 3.06432 20.684 3.1156 20.7445 3.15445C20.8049 3.19331 20.8751 3.21857 20.949 3.22807L23.6055 3.56976C23.6906 3.5807 23.7705 3.6125 23.8363 3.66155C23.902 3.7106 23.9509 3.77496 23.9775 3.84734C24.004 3.91972 24.0072 3.99724 23.9865 4.07111C23.9659 4.14499 23.9223 4.21228 23.8607 4.26538L21.9382 5.92369C21.8295 6.01747 21.7802 6.15243 21.8055 6.28454L22.2593 8.62624C22.2738 8.70122 22.2643 8.77831 22.2319 8.84877C22.1995 8.91924 22.1455 8.98028 22.076 9.02499C22.0064 9.06971 21.9241 9.09631 21.8384 9.10178C21.7527 9.10726 21.6669 9.09141 21.5908 9.056L19.2145 7.95019C19.1483 7.91947 19.0747 7.90343 19 7.90343C18.9253 7.90343 18.8517 7.91947 18.7855 7.95019L16.4092 9.056C16.3331 9.09141 16.2473 9.10726 16.1616 9.10178C16.0759 9.09631 15.9936 9.06971 15.924 9.02499C15.8545 8.98028 15.8005 8.91924 15.7681 8.84877C15.7357 8.77831 15.7262 8.70122 15.7407 8.62624L16.1945 6.28454C16.2071 6.21938 16.2017 6.15248 16.1785 6.08961C16.1554 6.02674 16.1154 5.96979 16.0618 5.92369L14.1393 4.26538C14.0777 4.21228 14.0341 4.14499 14.0135 4.07111C13.9928 3.99724 13.996 3.91972 14.0225 3.84734C14.0491 3.77496 14.098 3.7106 14.1637 3.66155C14.2295 3.6125 14.3094 3.5807 14.3945 3.56976L17.051 3.22807C17.1249 3.21857 17.1951 3.19331 17.2555 3.15445C17.316 3.1156 17.3648 3.06432 17.3979 3.00503L18.5861 0.874556C18.7565 0.5716 19.2449 0.5716 19.4139 0.874556Z" fill="white"/>
<path d="M19.4139 0.874556L20.6021 3.00503C20.6352 3.06432 20.684 3.1156 20.7445 3.15445C20.8049 3.19331 20.8751 3.21857 20.949 3.22807L23.6055 3.56976C23.6906 3.5807 23.7705 3.6125 23.8363 3.66155C23.902 3.7106 23.9509 3.77496 23.9775 3.84734C24.004 3.91972 24.0072 3.99724 23.9865 4.07111C23.9659 4.14499 23.9223 4.21228 23.8607 4.26538L21.9382 5.92369C21.8295 6.01747 21.7802 6.15243 21.8055 6.28454L22.2593 8.62624C22.2738 8.70122 22.2643 8.77831 22.2319 8.84877C22.1995 8.91924 22.1455 8.98028 22.076 9.02499C22.0064 9.06971 21.9241 9.09631 21.8384 9.10178C21.7527 9.10726 21.6669 9.09141 21.5908 9.056L19.2145 7.95019C19.1483 7.91947 19.0747 7.90343 19 7.90343C18.9253 7.90343 18.8517 7.91947 18.7855 7.95019L16.4092 9.056C16.3331 9.09141 16.2473 9.10726 16.1616 9.10178C16.0759 9.09631 15.9936 9.06971 15.924 9.02499C15.8545 8.98028 15.8005 8.91924 15.7681 8.84877C15.7357 8.77831 15.7262 8.70122 15.7407 8.62624L16.1945 6.28454C16.2071 6.21938 16.2017 6.15248 16.1785 6.08961C16.1554 6.02674 16.1154 5.96979 16.0618 5.92369L14.1393 4.26538C14.0777 4.21228 14.0341 4.14499 14.0135 4.07111C13.9928 3.99724 13.996 3.91972 14.0225 3.84734C14.0491 3.77496 14.098 3.7106 14.1637 3.66155C14.2295 3.6125 14.3094 3.5807 14.3945 3.56976L17.051 3.22807C17.1249 3.21857 17.1951 3.19331 17.2555 3.15445C17.316 3.1156 17.3648 3.06432 17.3979 3.00503L18.5861 0.874556C18.7565 0.5716 19.2449 0.5716 19.4139 0.874556Z" fill="#FBF8FA"/>
<path d="M19.4139 0.874556L20.2873 0.387481L20.2872 0.387214L19.4139 0.874556ZM20.6021 3.00503L19.7288 3.49211L19.7288 3.49212L20.6021 3.00503ZM20.949 3.22807L21.0766 2.23624L21.0765 2.23623L20.949 3.22807ZM23.6055 3.56976L23.4779 4.56159L23.478 4.56161L23.6055 3.56976ZM23.8607 4.26538L23.2078 3.50794L23.2076 3.50815L23.8607 4.26538ZM21.9382 5.92369L22.5913 6.68092L22.5913 6.68092L21.9382 5.92369ZM21.8055 6.28454L20.8234 6.47291L20.8238 6.4748L21.8055 6.28454ZM22.2593 8.62624L23.2411 8.43617L23.241 8.43598L22.2593 8.62624ZM21.5908 9.056L21.1689 9.96265L21.1689 9.96265L21.5908 9.056ZM19.2145 7.95019L19.6364 7.04355L19.6356 7.04319L19.2145 7.95019ZM18.7855 7.95019L18.3644 7.04319L18.3636 7.04355L18.7855 7.95019ZM16.4092 9.056L16.8311 9.96265L16.8311 9.96265L16.4092 9.056ZM15.7407 8.62624L14.759 8.43598L14.7589 8.43617L15.7407 8.62624ZM16.1945 6.28454L15.2128 6.09421L15.2128 6.09429L16.1945 6.28454ZM16.0618 5.92369L15.4087 6.68092L15.4093 6.6815L16.0618 5.92369ZM14.1393 4.26538L14.7924 3.50815L14.7922 3.50794L14.1393 4.26538ZM14.3945 3.56976L14.522 4.56161L14.5221 4.56159L14.3945 3.56976ZM17.051 3.22807L16.9235 2.23623L16.9234 2.23624L17.051 3.22807ZM17.3979 3.00503L18.2712 3.49212L18.2712 3.49211L17.3979 3.00503ZM18.5861 0.874556L17.7145 0.384181L17.7127 0.387481L18.5861 0.874556ZM18.5406 1.36163L19.7288 3.49211L21.4755 2.51796L20.2873 0.387481L18.5406 1.36163ZM19.7288 3.49212C19.8466 3.70338 20.0133 3.87322 20.2037 3.99561L21.2853 2.31329C21.3548 2.35797 21.4238 2.42525 21.4755 2.51795L19.7288 3.49212ZM20.2037 3.99561C20.3937 4.11778 20.606 4.19222 20.8216 4.21991L21.0765 2.23623C21.1442 2.24493 21.2161 2.26883 21.2853 2.31329L20.2037 3.99561ZM20.8215 4.2199L23.4779 4.56159L23.7331 2.57794L21.0766 2.23624L20.8215 4.2199ZM23.478 4.56161C23.4006 4.55166 23.3168 4.52164 23.2382 4.463L24.4343 2.8601C24.2243 2.70336 23.9805 2.60974 23.733 2.57792L23.478 4.56161ZM23.2382 4.463C23.1588 4.40378 23.0833 4.31341 23.0387 4.1918L24.9163 3.50288C24.8185 3.23651 24.6452 3.01743 24.4343 2.8601L23.2382 4.463ZM23.0387 4.1918C22.9934 4.06841 22.9873 3.93135 23.0234 3.80214L24.9497 4.34009C25.027 4.06312 25.0147 3.77104 24.9163 3.50288L23.0387 4.1918ZM23.0234 3.80214C23.059 3.6745 23.1296 3.57538 23.2078 3.50794L24.5136 5.02283C24.7151 4.84919 24.8728 4.61548 24.9497 4.34009L23.0234 3.80214ZM23.2076 3.50815L21.285 5.16646L22.5913 6.68092L24.5139 5.02261L23.2076 3.50815ZM21.285 5.16645C20.9255 5.47657 20.7258 5.96414 20.8234 6.47291L22.7876 6.09618C22.8345 6.34072 22.7334 6.55837 22.5913 6.68092L21.285 5.16645ZM20.8238 6.4748L21.2776 8.81649L23.241 8.43598L22.7872 6.09429L20.8238 6.4748ZM21.2775 8.81631C21.2517 8.68265 21.2699 8.5474 21.3234 8.43105L23.1405 9.2665C23.2588 9.00921 23.296 8.7198 23.2411 8.43617L21.2775 8.81631ZM21.3234 8.43105C21.376 8.31658 21.4553 8.23516 21.5352 8.18383L22.6167 9.86616C22.8357 9.7254 23.0231 9.52191 23.1405 9.2665L21.3234 8.43105ZM21.5352 8.18383C21.6144 8.13289 21.6975 8.10875 21.7746 8.10382L21.9022 10.0997C22.1508 10.0839 22.3984 10.0065 22.6167 9.86616L21.5352 8.18383ZM21.7746 8.10382C21.8517 8.09889 21.9334 8.11244 22.0127 8.14935L21.1689 9.96265C21.4004 10.0704 21.6536 10.1156 21.9022 10.0997L21.7746 8.10382ZM22.0127 8.14936L19.6364 7.04355L18.7926 8.85684L21.1689 9.96265L22.0127 8.14936ZM19.6356 7.04319C19.4342 6.9497 19.2166 6.90343 19 6.90343V8.90343C18.9329 8.90343 18.8624 8.88925 18.7933 8.85719L19.6356 7.04319ZM19 6.90343C18.7834 6.90343 18.5658 6.9497 18.3644 7.04319L19.2067 8.85719C19.1376 8.88925 19.0671 8.90343 19 8.90343V6.90343ZM18.3636 7.04355L15.9873 8.14936L16.8311 9.96265L19.2074 8.85684L18.3636 7.04355ZM15.9873 8.14935C16.0666 8.11244 16.1483 8.09889 16.2254 8.10382L16.0978 10.0997C16.3464 10.1156 16.5996 10.0704 16.8311 9.96265L15.9873 8.14935ZM16.2254 8.10382C16.3025 8.10875 16.3856 8.13289 16.4648 8.18383L15.3833 9.86616C15.6016 10.0065 15.8492 10.0839 16.0978 10.0997L16.2254 8.10382ZM16.4648 8.18383C16.5447 8.23516 16.624 8.31658 16.6766 8.43105L14.8595 9.2665C14.9769 9.52191 15.1643 9.7254 15.3833 9.86616L16.4648 8.18383ZM16.6766 8.43105C16.7301 8.5474 16.7483 8.68265 16.7225 8.81631L14.7589 8.43617C14.704 8.7198 14.7412 9.00922 14.8595 9.2665L16.6766 8.43105ZM16.7224 8.81649L17.1762 6.4748L15.2128 6.09429L14.759 8.43598L16.7224 8.81649ZM17.1762 6.47487C17.2239 6.22891 17.2026 5.97691 17.1171 5.7445L15.24 6.43471C15.2008 6.32804 15.1904 6.20986 15.2128 6.09421L17.1762 6.47487ZM17.1171 5.7445C17.032 5.51314 16.8894 5.31668 16.7143 5.16588L15.4093 6.6815C15.3413 6.62291 15.2788 6.54033 15.24 6.43471L17.1171 5.7445ZM16.715 5.16646L14.7924 3.50815L13.4861 5.02261L15.4087 6.68092L16.715 5.16646ZM14.7922 3.50794C14.8704 3.57538 14.941 3.6745 14.9766 3.80214L13.0503 4.34009C13.1272 4.61548 13.2849 4.84919 13.4864 5.02283L14.7922 3.50794ZM14.9766 3.80214C15.0127 3.93135 15.0066 4.06841 14.9613 4.1918L13.0837 3.50288C12.9853 3.77104 12.973 4.06312 13.0503 4.34009L14.9766 3.80214ZM14.9613 4.1918C14.9167 4.31342 14.8411 4.40379 14.7618 4.463L13.5657 2.8601C13.3548 3.01742 13.1815 3.23651 13.0837 3.50288L14.9613 4.1918ZM14.7618 4.463C14.6832 4.52164 14.5994 4.55166 14.522 4.56161L14.267 2.57792C14.0195 2.60974 13.7757 2.70336 13.5657 2.8601L14.7618 4.463ZM14.5221 4.56159L17.1785 4.2199L16.9234 2.23624L14.2669 2.57794L14.5221 4.56159ZM17.1784 4.21991C17.394 4.19222 17.6063 4.11778 17.7963 3.99561L16.7147 2.31329C16.7839 2.26883 16.8558 2.24493 16.9235 2.23623L17.1784 4.21991ZM17.7963 3.99561C17.9867 3.87322 18.1534 3.70338 18.2712 3.49212L16.5245 2.51795C16.5762 2.42525 16.6452 2.35797 16.7147 2.31329L17.7963 3.99561ZM18.2712 3.49211L19.4594 1.36163L17.7127 0.387481L16.5245 2.51796L18.2712 3.49211ZM19.4576 1.36493C19.3314 1.58921 19.1214 1.64734 19.0005 1.64734C18.8797 1.64734 18.6675 1.589 18.5407 1.3619L20.2872 0.387214C19.9913 -0.142847 19.4504 -0.352661 19.0005 -0.352661C18.5506 -0.352661 18.0112 -0.143052 17.7145 0.384185L19.4576 1.36493Z" fill="#FC53EC" mask="url(#path-3-inside-2_140_63)"/>
</g>
<g id="Vector_3">
<mask id="path-5-inside-3_140_63" fill="white">
<path d="M33.4139 0.874556L34.6021 3.00503C34.6352 3.06432 34.684 3.1156 34.7445 3.15445C34.8049 3.19331 34.8751 3.21857 34.949 3.22807L37.6055 3.56976C37.6906 3.5807 37.7705 3.6125 37.8363 3.66155C37.902 3.7106 37.9509 3.77496 37.9775 3.84734C38.004 3.91972 38.0072 3.99724 37.9865 4.07111C37.9659 4.14499 37.9223 4.21228 37.8607 4.26538L35.9382 5.92369C35.8295 6.01747 35.7802 6.15243 35.8055 6.28454L36.2593 8.62624C36.2738 8.70122 36.2643 8.77831 36.2319 8.84877C36.1995 8.91924 36.1455 8.98028 36.076 9.02499C36.0064 9.06971 35.9241 9.09631 35.8384 9.10178C35.7527 9.10726 35.6669 9.09141 35.5908 9.056L33.2145 7.95019C33.1483 7.91947 33.0747 7.90343 33 7.90343C32.9253 7.90343 32.8517 7.91947 32.7855 7.95019L30.4092 9.056C30.3331 9.09141 30.2473 9.10726 30.1616 9.10178C30.0759 9.09631 29.9936 9.06971 29.924 9.02499C29.8545 8.98028 29.8005 8.91924 29.7681 8.84877C29.7357 8.77831 29.7262 8.70122 29.7407 8.62624L30.1945 6.28454C30.2071 6.21938 30.2017 6.15248 30.1785 6.08961C30.1554 6.02674 30.1154 5.96979 30.0618 5.92369L28.1393 4.26538C28.0777 4.21228 28.0341 4.14499 28.0135 4.07111C27.9928 3.99724 27.996 3.91972 28.0225 3.84734C28.0491 3.77496 28.098 3.7106 28.1637 3.66155C28.2295 3.6125 28.3094 3.5807 28.3945 3.56976L31.051 3.22807C31.1249 3.21857 31.1951 3.19331 31.2555 3.15445C31.316 3.1156 31.3648 3.06432 31.3979 3.00503L32.5861 0.874556C32.7565 0.5716 33.2449 0.5716 33.4139 0.874556Z"/>
</mask>
<path d="M33.4139 0.874556L34.6021 3.00503C34.6352 3.06432 34.684 3.1156 34.7445 3.15445C34.8049 3.19331 34.8751 3.21857 34.949 3.22807L37.6055 3.56976C37.6906 3.5807 37.7705 3.6125 37.8363 3.66155C37.902 3.7106 37.9509 3.77496 37.9775 3.84734C38.004 3.91972 38.0072 3.99724 37.9865 4.07111C37.9659 4.14499 37.9223 4.21228 37.8607 4.26538L35.9382 5.92369C35.8295 6.01747 35.7802 6.15243 35.8055 6.28454L36.2593 8.62624C36.2738 8.70122 36.2643 8.77831 36.2319 8.84877C36.1995 8.91924 36.1455 8.98028 36.076 9.02499C36.0064 9.06971 35.9241 9.09631 35.8384 9.10178C35.7527 9.10726 35.6669 9.09141 35.5908 9.056L33.2145 7.95019C33.1483 7.91947 33.0747 7.90343 33 7.90343C32.9253 7.90343 32.8517 7.91947 32.7855 7.95019L30.4092 9.056C30.3331 9.09141 30.2473 9.10726 30.1616 9.10178C30.0759 9.09631 29.9936 9.06971 29.924 9.02499C29.8545 8.98028 29.8005 8.91924 29.7681 8.84877C29.7357 8.77831 29.7262 8.70122 29.7407 8.62624L30.1945 6.28454C30.2071 6.21938 30.2017 6.15248 30.1785 6.08961C30.1554 6.02674 30.1154 5.96979 30.0618 5.92369L28.1393 4.26538C28.0777 4.21228 28.0341 4.14499 28.0135 4.07111C27.9928 3.99724 27.996 3.91972 28.0225 3.84734C28.0491 3.77496 28.098 3.7106 28.1637 3.66155C28.2295 3.6125 28.3094 3.5807 28.3945 3.56976L31.051 3.22807C31.1249 3.21857 31.1951 3.19331 31.2555 3.15445C31.316 3.1156 31.3648 3.06432 31.3979 3.00503L32.5861 0.874556C32.7565 0.5716 33.2449 0.5716 33.4139 0.874556Z" fill="white"/>
<path d="M33.4139 0.874556L34.6021 3.00503C34.6352 3.06432 34.684 3.1156 34.7445 3.15445C34.8049 3.19331 34.8751 3.21857 34.949 3.22807L37.6055 3.56976C37.6906 3.5807 37.7705 3.6125 37.8363 3.66155C37.902 3.7106 37.9509 3.77496 37.9775 3.84734C38.004 3.91972 38.0072 3.99724 37.9865 4.07111C37.9659 4.14499 37.9223 4.21228 37.8607 4.26538L35.9382 5.92369C35.8295 6.01747 35.7802 6.15243 35.8055 6.28454L36.2593 8.62624C36.2738 8.70122 36.2643 8.77831 36.2319 8.84877C36.1995 8.91924 36.1455 8.98028 36.076 9.02499C36.0064 9.06971 35.9241 9.09631 35.8384 9.10178C35.7527 9.10726 35.6669 9.09141 35.5908 9.056L33.2145 7.95019C33.1483 7.91947 33.0747 7.90343 33 7.90343C32.9253 7.90343 32.8517 7.91947 32.7855 7.95019L30.4092 9.056C30.3331 9.09141 30.2473 9.10726 30.1616 9.10178C30.0759 9.09631 29.9936 9.06971 29.924 9.02499C29.8545 8.98028 29.8005 8.91924 29.7681 8.84877C29.7357 8.77831 29.7262 8.70122 29.7407 8.62624L30.1945 6.28454C30.2071 6.21938 30.2017 6.15248 30.1785 6.08961C30.1554 6.02674 30.1154 5.96979 30.0618 5.92369L28.1393 4.26538C28.0777 4.21228 28.0341 4.14499 28.0135 4.07111C27.9928 3.99724 27.996 3.91972 28.0225 3.84734C28.0491 3.77496 28.098 3.7106 28.1637 3.66155C28.2295 3.6125 28.3094 3.5807 28.3945 3.56976L31.051 3.22807C31.1249 3.21857 31.1951 3.19331 31.2555 3.15445C31.316 3.1156 31.3648 3.06432 31.3979 3.00503L32.5861 0.874556C32.7565 0.5716 33.2449 0.5716 33.4139 0.874556Z" fill="white"/>
<path d="M33.4139 0.874556L34.6021 3.00503C34.6352 3.06432 34.684 3.1156 34.7445 3.15445C34.8049 3.19331 34.8751 3.21857 34.949 3.22807L37.6055 3.56976C37.6906 3.5807 37.7705 3.6125 37.8363 3.66155C37.902 3.7106 37.9509 3.77496 37.9775 3.84734C38.004 3.91972 38.0072 3.99724 37.9865 4.07111C37.9659 4.14499 37.9223 4.21228 37.8607 4.26538L35.9382 5.92369C35.8295 6.01747 35.7802 6.15243 35.8055 6.28454L36.2593 8.62624C36.2738 8.70122 36.2643 8.77831 36.2319 8.84877C36.1995 8.91924 36.1455 8.98028 36.076 9.02499C36.0064 9.06971 35.9241 9.09631 35.8384 9.10178C35.7527 9.10726 35.6669 9.09141 35.5908 9.056L33.2145 7.95019C33.1483 7.91947 33.0747 7.90343 33 7.90343C32.9253 7.90343 32.8517 7.91947 32.7855 7.95019L30.4092 9.056C30.3331 9.09141 30.2473 9.10726 30.1616 9.10178C30.0759 9.09631 29.9936 9.06971 29.924 9.02499C29.8545 8.98028 29.8005 8.91924 29.7681 8.84877C29.7357 8.77831 29.7262 8.70122 29.7407 8.62624L30.1945 6.28454C30.2071 6.21938 30.2017 6.15248 30.1785 6.08961C30.1554 6.02674 30.1154 5.96979 30.0618 5.92369L28.1393 4.26538C28.0777 4.21228 28.0341 4.14499 28.0135 4.07111C27.9928 3.99724 27.996 3.91972 28.0225 3.84734C28.0491 3.77496 28.098 3.7106 28.1637 3.66155C28.2295 3.6125 28.3094 3.5807 28.3945 3.56976L31.051 3.22807C31.1249 3.21857 31.1951 3.19331 31.2555 3.15445C31.316 3.1156 31.3648 3.06432 31.3979 3.00503L32.5861 0.874556C32.7565 0.5716 33.2449 0.5716 33.4139 0.874556Z" fill="white"/>
<path d="M33.4139 0.874556L34.6021 3.00503C34.6352 3.06432 34.684 3.1156 34.7445 3.15445C34.8049 3.19331 34.8751 3.21857 34.949 3.22807L37.6055 3.56976C37.6906 3.5807 37.7705 3.6125 37.8363 3.66155C37.902 3.7106 37.9509 3.77496 37.9775 3.84734C38.004 3.91972 38.0072 3.99724 37.9865 4.07111C37.9659 4.14499 37.9223 4.21228 37.8607 4.26538L35.9382 5.92369C35.8295 6.01747 35.7802 6.15243 35.8055 6.28454L36.2593 8.62624C36.2738 8.70122 36.2643 8.77831 36.2319 8.84877C36.1995 8.91924 36.1455 8.98028 36.076 9.02499C36.0064 9.06971 35.9241 9.09631 35.8384 9.10178C35.7527 9.10726 35.6669 9.09141 35.5908 9.056L33.2145 7.95019C33.1483 7.91947 33.0747 7.90343 33 7.90343C32.9253 7.90343 32.8517 7.91947 32.7855 7.95019L30.4092 9.056C30.3331 9.09141 30.2473 9.10726 30.1616 9.10178C30.0759 9.09631 29.9936 9.06971 29.924 9.02499C29.8545 8.98028 29.8005 8.91924 29.7681 8.84877C29.7357 8.77831 29.7262 8.70122 29.7407 8.62624L30.1945 6.28454C30.2071 6.21938 30.2017 6.15248 30.1785 6.08961C30.1554 6.02674 30.1154 5.96979 30.0618 5.92369L28.1393 4.26538C28.0777 4.21228 28.0341 4.14499 28.0135 4.07111C27.9928 3.99724 27.996 3.91972 28.0225 3.84734C28.0491 3.77496 28.098 3.7106 28.1637 3.66155C28.2295 3.6125 28.3094 3.5807 28.3945 3.56976L31.051 3.22807C31.1249 3.21857 31.1951 3.19331 31.2555 3.15445C31.316 3.1156 31.3648 3.06432 31.3979 3.00503L32.5861 0.874556C32.7565 0.5716 33.2449 0.5716 33.4139 0.874556Z" fill="#FBF8FA"/>
<path d="M33.4139 0.874556L34.2873 0.387481L34.2872 0.387214L33.4139 0.874556ZM34.6021 3.00503L33.7288 3.49211L33.7288 3.49212L34.6021 3.00503ZM34.949 3.22807L35.0766 2.23624L35.0765 2.23623L34.949 3.22807ZM37.6055 3.56976L37.4779 4.56159L37.478 4.56161L37.6055 3.56976ZM37.8607 4.26538L37.2078 3.50794L37.2076 3.50815L37.8607 4.26538ZM35.9382 5.92369L36.5913 6.68092L36.5913 6.68092L35.9382 5.92369ZM35.8055 6.28454L34.8234 6.47291L34.8238 6.4748L35.8055 6.28454ZM36.2593 8.62624L37.2411 8.43617L37.241 8.43598L36.2593 8.62624ZM35.5908 9.056L35.1689 9.96265L35.1689 9.96265L35.5908 9.056ZM33.2145 7.95019L33.6364 7.04355L33.6356 7.04319L33.2145 7.95019ZM32.7855 7.95019L32.3644 7.04319L32.3636 7.04355L32.7855 7.95019ZM30.4092 9.056L30.8311 9.96265L30.8311 9.96265L30.4092 9.056ZM29.7407 8.62624L28.759 8.43598L28.7589 8.43617L29.7407 8.62624ZM30.1945 6.28454L29.2128 6.09421L29.2128 6.09429L30.1945 6.28454ZM30.0618 5.92369L29.4087 6.68092L29.4093 6.6815L30.0618 5.92369ZM28.1393 4.26538L28.7924 3.50815L28.7922 3.50794L28.1393 4.26538ZM28.3945 3.56976L28.522 4.56161L28.5221 4.56159L28.3945 3.56976ZM31.051 3.22807L30.9235 2.23623L30.9234 2.23624L31.051 3.22807ZM31.3979 3.00503L32.2712 3.49212L32.2712 3.49211L31.3979 3.00503ZM32.5861 0.874556L31.7145 0.384181L31.7127 0.387481L32.5861 0.874556ZM32.5406 1.36163L33.7288 3.49211L35.4755 2.51796L34.2873 0.387481L32.5406 1.36163ZM33.7288 3.49212C33.8466 3.70338 34.0133 3.87322 34.2037 3.99561L35.2853 2.31329C35.3548 2.35797 35.4238 2.42525 35.4755 2.51795L33.7288 3.49212ZM34.2037 3.99561C34.3937 4.11778 34.606 4.19222 34.8216 4.21991L35.0765 2.23623C35.1442 2.24493 35.2161 2.26883 35.2853 2.31329L34.2037 3.99561ZM34.8215 4.2199L37.4779 4.56159L37.7331 2.57794L35.0766 2.23624L34.8215 4.2199ZM37.478 4.56161C37.4006 4.55166 37.3168 4.52164 37.2382 4.463L38.4343 2.8601C38.2243 2.70336 37.9805 2.60974 37.733 2.57792L37.478 4.56161ZM37.2382 4.463C37.1588 4.40378 37.0833 4.31341 37.0387 4.1918L38.9163 3.50288C38.8185 3.23651 38.6452 3.01743 38.4343 2.8601L37.2382 4.463ZM37.0387 4.1918C36.9934 4.06841 36.9873 3.93135 37.0234 3.80214L38.9497 4.34009C39.027 4.06312 39.0147 3.77104 38.9163 3.50288L37.0387 4.1918ZM37.0234 3.80214C37.059 3.6745 37.1296 3.57538 37.2078 3.50794L38.5136 5.02283C38.7151 4.84919 38.8728 4.61548 38.9497 4.34009L37.0234 3.80214ZM37.2076 3.50815L35.285 5.16646L36.5913 6.68092L38.5139 5.02261L37.2076 3.50815ZM35.285 5.16645C34.9255 5.47657 34.7258 5.96414 34.8234 6.47291L36.7876 6.09618C36.8345 6.34072 36.7334 6.55837 36.5913 6.68092L35.285 5.16645ZM34.8238 6.4748L35.2776 8.81649L37.241 8.43598L36.7872 6.09429L34.8238 6.4748ZM35.2775 8.81631C35.2517 8.68265 35.2699 8.5474 35.3234 8.43105L37.1405 9.2665C37.2588 9.00921 37.296 8.7198 37.2411 8.43617L35.2775 8.81631ZM35.3234 8.43105C35.376 8.31658 35.4553 8.23516 35.5352 8.18383L36.6167 9.86616C36.8357 9.7254 37.0231 9.52191 37.1405 9.2665L35.3234 8.43105ZM35.5352 8.18383C35.6144 8.13289 35.6975 8.10875 35.7746 8.10382L35.9022 10.0997C36.1508 10.0839 36.3984 10.0065 36.6167 9.86616L35.5352 8.18383ZM35.7746 8.10382C35.8517 8.09889 35.9334 8.11244 36.0127 8.14935L35.1689 9.96265C35.4004 10.0704 35.6536 10.1156 35.9022 10.0997L35.7746 8.10382ZM36.0127 8.14936L33.6364 7.04355L32.7926 8.85684L35.1689 9.96265L36.0127 8.14936ZM33.6356 7.04319C33.4342 6.9497 33.2166 6.90343 33 6.90343V8.90343C32.9329 8.90343 32.8624 8.88925 32.7933 8.85719L33.6356 7.04319ZM33 6.90343C32.7834 6.90343 32.5658 6.9497 32.3644 7.04319L33.2067 8.85719C33.1376 8.88925 33.0671 8.90343 33 8.90343V6.90343ZM32.3636 7.04355L29.9873 8.14936L30.8311 9.96265L33.2074 8.85684L32.3636 7.04355ZM29.9873 8.14935C30.0666 8.11244 30.1483 8.09889 30.2254 8.10382L30.0978 10.0997C30.3464 10.1156 30.5996 10.0704 30.8311 9.96265L29.9873 8.14935ZM30.2254 8.10382C30.3025 8.10875 30.3856 8.13289 30.4648 8.18383L29.3833 9.86616C29.6016 10.0065 29.8492 10.0839 30.0978 10.0997L30.2254 8.10382ZM30.4648 8.18383C30.5447 8.23516 30.624 8.31658 30.6766 8.43105L28.8595 9.2665C28.9769 9.52191 29.1643 9.7254 29.3833 9.86616L30.4648 8.18383ZM30.6766 8.43105C30.7301 8.5474 30.7483 8.68265 30.7225 8.81631L28.7589 8.43617C28.704 8.7198 28.7412 9.00922 28.8595 9.2665L30.6766 8.43105ZM30.7224 8.81649L31.1762 6.4748L29.2128 6.09429L28.759 8.43598L30.7224 8.81649ZM31.1762 6.47487C31.2239 6.22891 31.2026 5.97691 31.1171 5.7445L29.24 6.43471C29.2008 6.32804 29.1904 6.20986 29.2128 6.09421L31.1762 6.47487ZM31.1171 5.7445C31.032 5.51314 30.8894 5.31668 30.7143 5.16588L29.4093 6.6815C29.3413 6.62291 29.2788 6.54033 29.24 6.43471L31.1171 5.7445ZM30.715 5.16646L28.7924 3.50815L27.4861 5.02261L29.4087 6.68092L30.715 5.16646ZM28.7922 3.50794C28.8704 3.57538 28.941 3.6745 28.9766 3.80214L27.0503 4.34009C27.1272 4.61548 27.2849 4.84919 27.4864 5.02283L28.7922 3.50794ZM28.9766 3.80214C29.0127 3.93135 29.0066 4.06841 28.9613 4.1918L27.0837 3.50288C26.9853 3.77104 26.973 4.06312 27.0503 4.34009L28.9766 3.80214ZM28.9613 4.1918C28.9167 4.31342 28.8411 4.40379 28.7618 4.463L27.5657 2.8601C27.3548 3.01742 27.1815 3.23651 27.0837 3.50288L28.9613 4.1918ZM28.7618 4.463C28.6832 4.52164 28.5994 4.55166 28.522 4.56161L28.267 2.57792C28.0195 2.60974 27.7757 2.70336 27.5657 2.8601L28.7618 4.463ZM28.5221 4.56159L31.1785 4.2199L30.9234 2.23624L28.2669 2.57794L28.5221 4.56159ZM31.1784 4.21991C31.394 4.19222 31.6063 4.11778 31.7963 3.99561L30.7147 2.31329C30.7839 2.26883 30.8558 2.24493 30.9235 2.23623L31.1784 4.21991ZM31.7963 3.99561C31.9867 3.87322 32.1534 3.70338 32.2712 3.49212L30.5245 2.51795C30.5762 2.42525 30.6452 2.35797 30.7147 2.31329L31.7963 3.99561ZM32.2712 3.49211L33.4594 1.36163L31.7127 0.387481L30.5245 2.51796L32.2712 3.49211ZM33.4576 1.36493C33.3314 1.58921 33.1214 1.64734 33.0005 1.64734C32.8797 1.64734 32.6675 1.589 32.5407 1.3619L34.2872 0.387214C33.9913 -0.142847 33.4504 -0.352661 33.0005 -0.352661C32.5506 -0.352661 32.0112 -0.143052 31.7145 0.384185L33.4576 1.36493Z" fill="#FC53EC" mask="url(#path-5-inside-3_140_63)"/>
</g>
<g id="Vector_4">
<mask id="path-7-inside-4_140_63" fill="white">
<path d="M47.4139 0.874556L48.6021 3.00503C48.6352 3.06432 48.684 3.1156 48.7445 3.15445C48.8049 3.19331 48.8751 3.21857 48.949 3.22807L51.6055 3.56976C51.6906 3.5807 51.7705 3.6125 51.8363 3.66155C51.902 3.7106 51.9509 3.77496 51.9775 3.84734C52.004 3.91972 52.0072 3.99724 51.9865 4.07111C51.9659 4.14499 51.9223 4.21228 51.8607 4.26538L49.9382 5.92369C49.8295 6.01747 49.7802 6.15243 49.8055 6.28454L50.2593 8.62624C50.2738 8.70122 50.2643 8.77831 50.2319 8.84877C50.1995 8.91924 50.1455 8.98028 50.076 9.02499C50.0064 9.06971 49.9241 9.09631 49.8384 9.10178C49.7527 9.10726 49.6669 9.09141 49.5908 9.056L47.2145 7.95019C47.1483 7.91947 47.0747 7.90343 47 7.90343C46.9253 7.90343 46.8517 7.91947 46.7855 7.95019L44.4092 9.056C44.3331 9.09141 44.2473 9.10726 44.1616 9.10178C44.0759 9.09631 43.9936 9.06971 43.924 9.02499C43.8545 8.98028 43.8005 8.91924 43.7681 8.84877C43.7357 8.77831 43.7262 8.70122 43.7407 8.62624L44.1945 6.28454C44.2071 6.21938 44.2017 6.15248 44.1785 6.08961C44.1554 6.02674 44.1154 5.96979 44.0618 5.92369L42.1393 4.26538C42.0777 4.21228 42.0341 4.14499 42.0135 4.07111C41.9928 3.99724 41.996 3.91972 42.0225 3.84734C42.0491 3.77496 42.098 3.7106 42.1637 3.66155C42.2295 3.6125 42.3094 3.5807 42.3945 3.56976L45.051 3.22807C45.1249 3.21857 45.1951 3.19331 45.2555 3.15445C45.316 3.1156 45.3648 3.06432 45.3979 3.00503L46.5861 0.874556C46.7565 0.5716 47.2449 0.5716 47.4139 0.874556Z"/>
</mask>
<path d="M47.4139 0.874556L48.6021 3.00503C48.6352 3.06432 48.684 3.1156 48.7445 3.15445C48.8049 3.19331 48.8751 3.21857 48.949 3.22807L51.6055 3.56976C51.6906 3.5807 51.7705 3.6125 51.8363 3.66155C51.902 3.7106 51.9509 3.77496 51.9775 3.84734C52.004 3.91972 52.0072 3.99724 51.9865 4.07111C51.9659 4.14499 51.9223 4.21228 51.8607 4.26538L49.9382 5.92369C49.8295 6.01747 49.7802 6.15243 49.8055 6.28454L50.2593 8.62624C50.2738 8.70122 50.2643 8.77831 50.2319 8.84877C50.1995 8.91924 50.1455 8.98028 50.076 9.02499C50.0064 9.06971 49.9241 9.09631 49.8384 9.10178C49.7527 9.10726 49.6669 9.09141 49.5908 9.056L47.2145 7.95019C47.1483 7.91947 47.0747 7.90343 47 7.90343C46.9253 7.90343 46.8517 7.91947 46.7855 7.95019L44.4092 9.056C44.3331 9.09141 44.2473 9.10726 44.1616 9.10178C44.0759 9.09631 43.9936 9.06971 43.924 9.02499C43.8545 8.98028 43.8005 8.91924 43.7681 8.84877C43.7357 8.77831 43.7262 8.70122 43.7407 8.62624L44.1945 6.28454C44.2071 6.21938 44.2017 6.15248 44.1785 6.08961C44.1554 6.02674 44.1154 5.96979 44.0618 5.92369L42.1393 4.26538C42.0777 4.21228 42.0341 4.14499 42.0135 4.07111C41.9928 3.99724 41.996 3.91972 42.0225 3.84734C42.0491 3.77496 42.098 3.7106 42.1637 3.66155C42.2295 3.6125 42.3094 3.5807 42.3945 3.56976L45.051 3.22807C45.1249 3.21857 45.1951 3.19331 45.2555 3.15445C45.316 3.1156 45.3648 3.06432 45.3979 3.00503L46.5861 0.874556C46.7565 0.5716 47.2449 0.5716 47.4139 0.874556Z" fill="white"/>
<path d="M47.4139 0.874556L48.6021 3.00503C48.6352 3.06432 48.684 3.1156 48.7445 3.15445C48.8049 3.19331 48.8751 3.21857 48.949 3.22807L51.6055 3.56976C51.6906 3.5807 51.7705 3.6125 51.8363 3.66155C51.902 3.7106 51.9509 3.77496 51.9775 3.84734C52.004 3.91972 52.0072 3.99724 51.9865 4.07111C51.9659 4.14499 51.9223 4.21228 51.8607 4.26538L49.9382 5.92369C49.8295 6.01747 49.7802 6.15243 49.8055 6.28454L50.2593 8.62624C50.2738 8.70122 50.2643 8.77831 50.2319 8.84877C50.1995 8.91924 50.1455 8.98028 50.076 9.02499C50.0064 9.06971 49.9241 9.09631 49.8384 9.10178C49.7527 9.10726 49.6669 9.09141 49.5908 9.056L47.2145 7.95019C47.1483 7.91947 47.0747 7.90343 47 7.90343C46.9253 7.90343 46.8517 7.91947 46.7855 7.95019L44.4092 9.056C44.3331 9.09141 44.2473 9.10726 44.1616 9.10178C44.0759 9.09631 43.9936 9.06971 43.924 9.02499C43.8545 8.98028 43.8005 8.91924 43.7681 8.84877C43.7357 8.77831 43.7262 8.70122 43.7407 8.62624L44.1945 6.28454C44.2071 6.21938 44.2017 6.15248 44.1785 6.08961C44.1554 6.02674 44.1154 5.96979 44.0618 5.92369L42.1393 4.26538C42.0777 4.21228 42.0341 4.14499 42.0135 4.07111C41.9928 3.99724 41.996 3.91972 42.0225 3.84734C42.0491 3.77496 42.098 3.7106 42.1637 3.66155C42.2295 3.6125 42.3094 3.5807 42.3945 3.56976L45.051 3.22807C45.1249 3.21857 45.1951 3.19331 45.2555 3.15445C45.316 3.1156 45.3648 3.06432 45.3979 3.00503L46.5861 0.874556C46.7565 0.5716 47.2449 0.5716 47.4139 0.874556Z" fill="white"/>
<path d="M47.4139 0.874556L48.6021 3.00503C48.6352 3.06432 48.684 3.1156 48.7445 3.15445C48.8049 3.19331 48.8751 3.21857 48.949 3.22807L51.6055 3.56976C51.6906 3.5807 51.7705 3.6125 51.8363 3.66155C51.902 3.7106 51.9509 3.77496 51.9775 3.84734C52.004 3.91972 52.0072 3.99724 51.9865 4.07111C51.9659 4.14499 51.9223 4.21228 51.8607 4.26538L49.9382 5.92369C49.8295 6.01747 49.7802 6.15243 49.8055 6.28454L50.2593 8.62624C50.2738 8.70122 50.2643 8.77831 50.2319 8.84877C50.1995 8.91924 50.1455 8.98028 50.076 9.02499C50.0064 9.06971 49.9241 9.09631 49.8384 9.10178C49.7527 9.10726 49.6669 9.09141 49.5908 9.056L47.2145 7.95019C47.1483 7.91947 47.0747 7.90343 47 7.90343C46.9253 7.90343 46.8517 7.91947 46.7855 7.95019L44.4092 9.056C44.3331 9.09141 44.2473 9.10726 44.1616 9.10178C44.0759 9.09631 43.9936 9.06971 43.924 9.02499C43.8545 8.98028 43.8005 8.91924 43.7681 8.84877C43.7357 8.77831 43.7262 8.70122 43.7407 8.62624L44.1945 6.28454C44.2071 6.21938 44.2017 6.15248 44.1785 6.08961C44.1554 6.02674 44.1154 5.96979 44.0618 5.92369L42.1393 4.26538C42.0777 4.21228 42.0341 4.14499 42.0135 4.07111C41.9928 3.99724 41.996 3.91972 42.0225 3.84734C42.0491 3.77496 42.098 3.7106 42.1637 3.66155C42.2295 3.6125 42.3094 3.5807 42.3945 3.56976L45.051 3.22807C45.1249 3.21857 45.1951 3.19331 45.2555 3.15445C45.316 3.1156 45.3648 3.06432 45.3979 3.00503L46.5861 0.874556C46.7565 0.5716 47.2449 0.5716 47.4139 0.874556Z" fill="white"/>
<path d="M47.4139 0.874556L48.6021 3.00503C48.6352 3.06432 48.684 3.1156 48.7445 3.15445C48.8049 3.19331 48.8751 3.21857 48.949 3.22807L51.6055 3.56976C51.6906 3.5807 51.7705 3.6125 51.8363 3.66155C51.902 3.7106 51.9509 3.77496 51.9775 3.84734C52.004 3.91972 52.0072 3.99724 51.9865 4.07111C51.9659 4.14499 51.9223 4.21228 51.8607 4.26538L49.9382 5.92369C49.8295 6.01747 49.7802 6.15243 49.8055 6.28454L50.2593 8.62624C50.2738 8.70122 50.2643 8.77831 50.2319 8.84877C50.1995 8.91924 50.1455 8.98028 50.076 9.02499C50.0064 9.06971 49.9241 9.09631 49.8384 9.10178C49.7527 9.10726 49.6669 9.09141 49.5908 9.056L47.2145 7.95019C47.1483 7.91947 47.0747 7.90343 47 7.90343C46.9253 7.90343 46.8517 7.91947 46.7855 7.95019L44.4092 9.056C44.3331 9.09141 44.2473 9.10726 44.1616 9.10178C44.0759 9.09631 43.9936 9.06971 43.924 9.02499C43.8545 8.98028 43.8005 8.91924 43.7681 8.84877C43.7357 8.77831 43.7262 8.70122 43.7407 8.62624L44.1945 6.28454C44.2071 6.21938 44.2017 6.15248 44.1785 6.08961C44.1554 6.02674 44.1154 5.96979 44.0618 5.92369L42.1393 4.26538C42.0777 4.21228 42.0341 4.14499 42.0135 4.07111C41.9928 3.99724 41.996 3.91972 42.0225 3.84734C42.0491 3.77496 42.098 3.7106 42.1637 3.66155C42.2295 3.6125 42.3094 3.5807 42.3945 3.56976L45.051 3.22807C45.1249 3.21857 45.1951 3.19331 45.2555 3.15445C45.316 3.1156 45.3648 3.06432 45.3979 3.00503L46.5861 0.874556C46.7565 0.5716 47.2449 0.5716 47.4139 0.874556Z" fill="#FBF8FA"/>
<path d="M47.4139 0.874556L48.2873 0.387481L48.2872 0.387214L47.4139 0.874556ZM48.6021 3.00503L47.7288 3.49211L47.7288 3.49212L48.6021 3.00503ZM48.949 3.22807L49.0766 2.23624L49.0765 2.23623L48.949 3.22807ZM51.6055 3.56976L51.4779 4.56159L51.478 4.56161L51.6055 3.56976ZM51.8607 4.26538L51.2078 3.50794L51.2076 3.50815L51.8607 4.26538ZM49.9382 5.92369L50.5913 6.68092L50.5913 6.68092L49.9382 5.92369ZM49.8055 6.28454L48.8234 6.47291L48.8238 6.4748L49.8055 6.28454ZM50.2593 8.62624L51.2411 8.43617L51.241 8.43598L50.2593 8.62624ZM49.5908 9.056L49.1689 9.96265L49.1689 9.96265L49.5908 9.056ZM47.2145 7.95019L47.6364 7.04355L47.6356 7.04319L47.2145 7.95019ZM46.7855 7.95019L46.3644 7.04319L46.3636 7.04355L46.7855 7.95019ZM44.4092 9.056L44.8311 9.96265L44.8311 9.96265L44.4092 9.056ZM43.7407 8.62624L42.759 8.43598L42.7589 8.43617L43.7407 8.62624ZM44.1945 6.28454L43.2128 6.09421L43.2128 6.09429L44.1945 6.28454ZM44.0618 5.92369L43.4087 6.68092L43.4093 6.6815L44.0618 5.92369ZM42.1393 4.26538L42.7924 3.50815L42.7922 3.50794L42.1393 4.26538ZM42.3945 3.56976L42.522 4.56161L42.5221 4.56159L42.3945 3.56976ZM45.051 3.22807L44.9235 2.23623L44.9234 2.23624L45.051 3.22807ZM45.3979 3.00503L46.2712 3.49212L46.2712 3.49211L45.3979 3.00503ZM46.5861 0.874556L45.7145 0.384181L45.7127 0.387481L46.5861 0.874556ZM46.5406 1.36163L47.7288 3.49211L49.4755 2.51796L48.2873 0.387481L46.5406 1.36163ZM47.7288 3.49212C47.8466 3.70338 48.0133 3.87322 48.2037 3.99561L49.2853 2.31329C49.3548 2.35797 49.4238 2.42525 49.4755 2.51795L47.7288 3.49212ZM48.2037 3.99561C48.3937 4.11778 48.606 4.19222 48.8216 4.21991L49.0765 2.23623C49.1442 2.24493 49.2161 2.26883 49.2853 2.31329L48.2037 3.99561ZM48.8215 4.2199L51.4779 4.56159L51.7331 2.57794L49.0766 2.23624L48.8215 4.2199ZM51.478 4.56161C51.4006 4.55166 51.3168 4.52164 51.2382 4.463L52.4343 2.8601C52.2243 2.70336 51.9805 2.60974 51.733 2.57792L51.478 4.56161ZM51.2382 4.463C51.1588 4.40378 51.0833 4.31341 51.0387 4.1918L52.9163 3.50288C52.8185 3.23651 52.6452 3.01743 52.4343 2.8601L51.2382 4.463ZM51.0387 4.1918C50.9934 4.06841 50.9873 3.93135 51.0234 3.80214L52.9497 4.34009C53.027 4.06312 53.0147 3.77104 52.9163 3.50288L51.0387 4.1918ZM51.0234 3.80214C51.059 3.6745 51.1296 3.57538 51.2078 3.50794L52.5136 5.02283C52.7151 4.84919 52.8728 4.61548 52.9497 4.34009L51.0234 3.80214ZM51.2076 3.50815L49.285 5.16646L50.5913 6.68092L52.5139 5.02261L51.2076 3.50815ZM49.285 5.16645C48.9255 5.47657 48.7258 5.96414 48.8234 6.47291L50.7876 6.09618C50.8345 6.34072 50.7334 6.55837 50.5913 6.68092L49.285 5.16645ZM48.8238 6.4748L49.2776 8.81649L51.241 8.43598L50.7872 6.09429L48.8238 6.4748ZM49.2775 8.81631C49.2517 8.68265 49.2699 8.5474 49.3234 8.43105L51.1405 9.2665C51.2588 9.00921 51.296 8.7198 51.2411 8.43617L49.2775 8.81631ZM49.3234 8.43105C49.376 8.31658 49.4553 8.23516 49.5352 8.18383L50.6167 9.86616C50.8357 9.7254 51.0231 9.52191 51.1405 9.2665L49.3234 8.43105ZM49.5352 8.18383C49.6144 8.13289 49.6975 8.10875 49.7746 8.10382L49.9022 10.0997C50.1508 10.0839 50.3984 10.0065 50.6167 9.86616L49.5352 8.18383ZM49.7746 8.10382C49.8517 8.09889 49.9334 8.11244 50.0127 8.14935L49.1689 9.96265C49.4004 10.0704 49.6536 10.1156 49.9022 10.0997L49.7746 8.10382ZM50.0127 8.14936L47.6364 7.04355L46.7926 8.85684L49.1689 9.96265L50.0127 8.14936ZM47.6356 7.04319C47.4342 6.9497 47.2166 6.90343 47 6.90343V8.90343C46.9329 8.90343 46.8624 8.88925 46.7933 8.85719L47.6356 7.04319ZM47 6.90343C46.7834 6.90343 46.5658 6.9497 46.3644 7.04319L47.2067 8.85719C47.1376 8.88925 47.0671 8.90343 47 8.90343V6.90343ZM46.3636 7.04355L43.9873 8.14936L44.8311 9.96265L47.2074 8.85684L46.3636 7.04355ZM43.9873 8.14935C44.0666 8.11244 44.1483 8.09889 44.2254 8.10382L44.0978 10.0997C44.3464 10.1156 44.5996 10.0704 44.8311 9.96265L43.9873 8.14935ZM44.2254 8.10382C44.3025 8.10875 44.3856 8.13289 44.4648 8.18383L43.3833 9.86616C43.6016 10.0065 43.8492 10.0839 44.0978 10.0997L44.2254 8.10382ZM44.4648 8.18383C44.5447 8.23516 44.624 8.31658 44.6766 8.43105L42.8595 9.2665C42.9769 9.52191 43.1643 9.7254 43.3833 9.86616L44.4648 8.18383ZM44.6766 8.43105C44.7301 8.5474 44.7483 8.68265 44.7225 8.81631L42.7589 8.43617C42.704 8.7198 42.7412 9.00922 42.8595 9.2665L44.6766 8.43105ZM44.7224 8.81649L45.1762 6.4748L43.2128 6.09429L42.759 8.43598L44.7224 8.81649ZM45.1762 6.47487C45.2239 6.22891 45.2026 5.97691 45.1171 5.7445L43.24 6.43471C43.2008 6.32804 43.1904 6.20986 43.2128 6.09421L45.1762 6.47487ZM45.1171 5.7445C45.032 5.51314 44.8894 5.31668 44.7143 5.16588L43.4093 6.6815C43.3413 6.62291 43.2788 6.54033 43.24 6.43471L45.1171 5.7445ZM44.715 5.16646L42.7924 3.50815L41.4861 5.02261L43.4087 6.68092L44.715 5.16646ZM42.7922 3.50794C42.8704 3.57538 42.941 3.6745 42.9766 3.80214L41.0503 4.34009C41.1272 4.61548 41.2849 4.84919 41.4864 5.02283L42.7922 3.50794ZM42.9766 3.80214C43.0127 3.93135 43.0066 4.06841 42.9613 4.1918L41.0837 3.50288C40.9853 3.77104 40.973 4.06312 41.0503 4.34009L42.9766 3.80214ZM42.9613 4.1918C42.9167 4.31342 42.8411 4.40379 42.7618 4.463L41.5657 2.8601C41.3548 3.01742 41.1815 3.23651 41.0837 3.50288L42.9613 4.1918ZM42.7618 4.463C42.6832 4.52164 42.5994 4.55166 42.522 4.56161L42.267 2.57792C42.0195 2.60974 41.7757 2.70336 41.5657 2.8601L42.7618 4.463ZM42.5221 4.56159L45.1785 4.2199L44.9234 2.23624L42.2669 2.57794L42.5221 4.56159ZM45.1784 4.21991C45.394 4.19222 45.6063 4.11778 45.7963 3.99561L44.7147 2.31329C44.7839 2.26883 44.8558 2.24493 44.9235 2.23623L45.1784 4.21991ZM45.7963 3.99561C45.9867 3.87322 46.1534 3.70338 46.2712 3.49212L44.5245 2.51795C44.5762 2.42525 44.6452 2.35797 44.7147 2.31329L45.7963 3.99561ZM46.2712 3.49211L47.4594 1.36163L45.7127 0.387481L44.5245 2.51796L46.2712 3.49211ZM47.4576 1.36493C47.3314 1.58921 47.1214 1.64734 47.0005 1.64734C46.8797 1.64734 46.6675 1.589 46.5407 1.3619L48.2872 0.387214C47.9913 -0.142847 47.4504 -0.352661 47.0005 -0.352661C46.5506 -0.352661 46.0112 -0.143052 45.7145 0.384185L47.4576 1.36493Z" fill="#FC53EC" mask="url(#path-7-inside-4_140_63)"/>
</g>
<g id="Vector_5">
<mask id="path-9-inside-5_140_63" fill="white">
<path d="M61.4139 0.874556L62.6021 3.00503C62.6352 3.06432 62.684 3.1156 62.7445 3.15445C62.8049 3.19331 62.8751 3.21857 62.949 3.22807L65.6055 3.56976C65.6906 3.5807 65.7705 3.6125 65.8363 3.66155C65.902 3.7106 65.9509 3.77496 65.9775 3.84734C66.004 3.91972 66.0072 3.99724 65.9865 4.07111C65.9659 4.14499 65.9223 4.21228 65.8607 4.26538L63.9382 5.92369C63.8295 6.01747 63.7802 6.15243 63.8055 6.28454L64.2593 8.62624C64.2738 8.70122 64.2643 8.77831 64.2319 8.84877C64.1995 8.91924 64.1455 8.98028 64.076 9.02499C64.0064 9.06971 63.9241 9.09631 63.8384 9.10178C63.7527 9.10726 63.6669 9.09141 63.5908 9.056L61.2145 7.95019C61.1483 7.91947 61.0747 7.90343 61 7.90343C60.9253 7.90343 60.8517 7.91947 60.7855 7.95019L58.4092 9.056C58.3331 9.09141 58.2473 9.10726 58.1616 9.10178C58.0759 9.09631 57.9936 9.06971 57.924 9.02499C57.8545 8.98028 57.8005 8.91924 57.7681 8.84877C57.7357 8.77831 57.7262 8.70122 57.7407 8.62624L58.1945 6.28454C58.2071 6.21938 58.2017 6.15248 58.1785 6.08961C58.1554 6.02674 58.1154 5.96979 58.0618 5.92369L56.1393 4.26538C56.0777 4.21228 56.0341 4.14499 56.0135 4.07111C55.9928 3.99724 55.996 3.91972 56.0225 3.84734C56.0491 3.77496 56.098 3.7106 56.1637 3.66155C56.2295 3.6125 56.3094 3.5807 56.3945 3.56976L59.051 3.22807C59.1249 3.21857 59.1951 3.19331 59.2555 3.15445C59.316 3.1156 59.3648 3.06432 59.3979 3.00503L60.5861 0.874556C60.7565 0.5716 61.2449 0.5716 61.4139 0.874556Z"/>
</mask>
<path d="M61.4139 0.874556L62.6021 3.00503C62.6352 3.06432 62.684 3.1156 62.7445 3.15445C62.8049 3.19331 62.8751 3.21857 62.949 3.22807L65.6055 3.56976C65.6906 3.5807 65.7705 3.6125 65.8363 3.66155C65.902 3.7106 65.9509 3.77496 65.9775 3.84734C66.004 3.91972 66.0072 3.99724 65.9865 4.07111C65.9659 4.14499 65.9223 4.21228 65.8607 4.26538L63.9382 5.92369C63.8295 6.01747 63.7802 6.15243 63.8055 6.28454L64.2593 8.62624C64.2738 8.70122 64.2643 8.77831 64.2319 8.84877C64.1995 8.91924 64.1455 8.98028 64.076 9.02499C64.0064 9.06971 63.9241 9.09631 63.8384 9.10178C63.7527 9.10726 63.6669 9.09141 63.5908 9.056L61.2145 7.95019C61.1483 7.91947 61.0747 7.90343 61 7.90343C60.9253 7.90343 60.8517 7.91947 60.7855 7.95019L58.4092 9.056C58.3331 9.09141 58.2473 9.10726 58.1616 9.10178C58.0759 9.09631 57.9936 9.06971 57.924 9.02499C57.8545 8.98028 57.8005 8.91924 57.7681 8.84877C57.7357 8.77831 57.7262 8.70122 57.7407 8.62624L58.1945 6.28454C58.2071 6.21938 58.2017 6.15248 58.1785 6.08961C58.1554 6.02674 58.1154 5.96979 58.0618 5.92369L56.1393 4.26538C56.0777 4.21228 56.0341 4.14499 56.0135 4.07111C55.9928 3.99724 55.996 3.91972 56.0225 3.84734C56.0491 3.77496 56.098 3.7106 56.1637 3.66155C56.2295 3.6125 56.3094 3.5807 56.3945 3.56976L59.051 3.22807C59.1249 3.21857 59.1951 3.19331 59.2555 3.15445C59.316 3.1156 59.3648 3.06432 59.3979 3.00503L60.5861 0.874556C60.7565 0.5716 61.2449 0.5716 61.4139 0.874556Z" fill="white"/>
<path d="M61.4139 0.874556L62.6021 3.00503C62.6352 3.06432 62.684 3.1156 62.7445 3.15445C62.8049 3.19331 62.8751 3.21857 62.949 3.22807L65.6055 3.56976C65.6906 3.5807 65.7705 3.6125 65.8363 3.66155C65.902 3.7106 65.9509 3.77496 65.9775 3.84734C66.004 3.91972 66.0072 3.99724 65.9865 4.07111C65.9659 4.14499 65.9223 4.21228 65.8607 4.26538L63.9382 5.92369C63.8295 6.01747 63.7802 6.15243 63.8055 6.28454L64.2593 8.62624C64.2738 8.70122 64.2643 8.77831 64.2319 8.84877C64.1995 8.91924 64.1455 8.98028 64.076 9.02499C64.0064 9.06971 63.9241 9.09631 63.8384 9.10178C63.7527 9.10726 63.6669 9.09141 63.5908 9.056L61.2145 7.95019C61.1483 7.91947 61.0747 7.90343 61 7.90343C60.9253 7.90343 60.8517 7.91947 60.7855 7.95019L58.4092 9.056C58.3331 9.09141 58.2473 9.10726 58.1616 9.10178C58.0759 9.09631 57.9936 9.06971 57.924 9.02499C57.8545 8.98028 57.8005 8.91924 57.7681 8.84877C57.7357 8.77831 57.7262 8.70122 57.7407 8.62624L58.1945 6.28454C58.2071 6.21938 58.2017 6.15248 58.1785 6.08961C58.1554 6.02674 58.1154 5.96979 58.0618 5.92369L56.1393 4.26538C56.0777 4.21228 56.0341 4.14499 56.0135 4.07111C55.9928 3.99724 55.996 3.91972 56.0225 3.84734C56.0491 3.77496 56.098 3.7106 56.1637 3.66155C56.2295 3.6125 56.3094 3.5807 56.3945 3.56976L59.051 3.22807C59.1249 3.21857 59.1951 3.19331 59.2555 3.15445C59.316 3.1156 59.3648 3.06432 59.3979 3.00503L60.5861 0.874556C60.7565 0.5716 61.2449 0.5716 61.4139 0.874556Z" fill="white"/>
<path d="M61.4139 0.874556L62.6021 3.00503C62.6352 3.06432 62.684 3.1156 62.7445 3.15445C62.8049 3.19331 62.8751 3.21857 62.949 3.22807L65.6055 3.56976C65.6906 3.5807 65.7705 3.6125 65.8363 3.66155C65.902 3.7106 65.9509 3.77496 65.9775 3.84734C66.004 3.91972 66.0072 3.99724 65.9865 4.07111C65.9659 4.14499 65.9223 4.21228 65.8607 4.26538L63.9382 5.92369C63.8295 6.01747 63.7802 6.15243 63.8055 6.28454L64.2593 8.62624C64.2738 8.70122 64.2643 8.77831 64.2319 8.84877C64.1995 8.91924 64.1455 8.98028 64.076 9.02499C64.0064 9.06971 63.9241 9.09631 63.8384 9.10178C63.7527 9.10726 63.6669 9.09141 63.5908 9.056L61.2145 7.95019C61.1483 7.91947 61.0747 7.90343 61 7.90343C60.9253 7.90343 60.8517 7.91947 60.7855 7.95019L58.4092 9.056C58.3331 9.09141 58.2473 9.10726 58.1616 9.10178C58.0759 9.09631 57.9936 9.06971 57.924 9.02499C57.8545 8.98028 57.8005 8.91924 57.7681 8.84877C57.7357 8.77831 57.7262 8.70122 57.7407 8.62624L58.1945 6.28454C58.2071 6.21938 58.2017 6.15248 58.1785 6.08961C58.1554 6.02674 58.1154 5.96979 58.0618 5.92369L56.1393 4.26538C56.0777 4.21228 56.0341 4.14499 56.0135 4.07111C55.9928 3.99724 55.996 3.91972 56.0225 3.84734C56.0491 3.77496 56.098 3.7106 56.1637 3.66155C56.2295 3.6125 56.3094 3.5807 56.3945 3.56976L59.051 3.22807C59.1249 3.21857 59.1951 3.19331 59.2555 3.15445C59.316 3.1156 59.3648 3.06432 59.3979 3.00503L60.5861 0.874556C60.7565 0.5716 61.2449 0.5716 61.4139 0.874556Z" fill="white"/>
<path d="M61.4139 0.874556L62.6021 3.00503C62.6352 3.06432 62.684 3.1156 62.7445 3.15445C62.8049 3.19331 62.8751 3.21857 62.949 3.22807L65.6055 3.56976C65.6906 3.5807 65.7705 3.6125 65.8363 3.66155C65.902 3.7106 65.9509 3.77496 65.9775 3.84734C66.004 3.91972 66.0072 3.99724 65.9865 4.07111C65.9659 4.14499 65.9223 4.21228 65.8607 4.26538L63.9382 5.92369C63.8295 6.01747 63.7802 6.15243 63.8055 6.28454L64.2593 8.62624C64.2738 8.70122 64.2643 8.77831 64.2319 8.84877C64.1995 8.91924 64.1455 8.98028 64.076 9.02499C64.0064 9.06971 63.9241 9.09631 63.8384 9.10178C63.7527 9.10726 63.6669 9.09141 63.5908 9.056L61.2145 7.95019C61.1483 7.91947 61.0747 7.90343 61 7.90343C60.9253 7.90343 60.8517 7.91947 60.7855 7.95019L58.4092 9.056C58.3331 9.09141 58.2473 9.10726 58.1616 9.10178C58.0759 9.09631 57.9936 9.06971 57.924 9.02499C57.8545 8.98028 57.8005 8.91924 57.7681 8.84877C57.7357 8.77831 57.7262 8.70122 57.7407 8.62624L58.1945 6.28454C58.2071 6.21938 58.2017 6.15248 58.1785 6.08961C58.1554 6.02674 58.1154 5.96979 58.0618 5.92369L56.1393 4.26538C56.0777 4.21228 56.0341 4.14499 56.0135 4.07111C55.9928 3.99724 55.996 3.91972 56.0225 3.84734C56.0491 3.77496 56.098 3.7106 56.1637 3.66155C56.2295 3.6125 56.3094 3.5807 56.3945 3.56976L59.051 3.22807C59.1249 3.21857 59.1951 3.19331 59.2555 3.15445C59.316 3.1156 59.3648 3.06432 59.3979 3.00503L60.5861 0.874556C60.7565 0.5716 61.2449 0.5716 61.4139 0.874556Z" fill="#FBF8FA"/>
<path d="M61.4139 0.874556L62.2873 0.387481L62.2872 0.387214L61.4139 0.874556ZM62.6021 3.00503L61.7288 3.49211L61.7288 3.49212L62.6021 3.00503ZM62.949 3.22807L63.0766 2.23624L63.0765 2.23623L62.949 3.22807ZM65.6055 3.56976L65.4779 4.56159L65.478 4.56161L65.6055 3.56976ZM65.8607 4.26538L65.2078 3.50794L65.2076 3.50815L65.8607 4.26538ZM63.9382 5.92369L64.5913 6.68092L64.5913 6.68092L63.9382 5.92369ZM63.8055 6.28454L62.8234 6.47291L62.8238 6.4748L63.8055 6.28454ZM64.2593 8.62624L65.2411 8.43617L65.241 8.43598L64.2593 8.62624ZM63.5908 9.056L63.1689 9.96265L63.1689 9.96265L63.5908 9.056ZM61.2145 7.95019L61.6364 7.04355L61.6356 7.04319L61.2145 7.95019ZM60.7855 7.95019L60.3644 7.04319L60.3636 7.04355L60.7855 7.95019ZM58.4092 9.056L58.8311 9.96265L58.8311 9.96265L58.4092 9.056ZM57.7407 8.62624L56.759 8.43598L56.7589 8.43617L57.7407 8.62624ZM58.1945 6.28454L57.2128 6.09421L57.2128 6.09429L58.1945 6.28454ZM58.0618 5.92369L57.4087 6.68092L57.4093 6.6815L58.0618 5.92369ZM56.1393 4.26538L56.7924 3.50815L56.7922 3.50794L56.1393 4.26538ZM56.3945 3.56976L56.522 4.56161L56.5221 4.56159L56.3945 3.56976ZM59.051 3.22807L58.9235 2.23623L58.9234 2.23624L59.051 3.22807ZM59.3979 3.00503L60.2712 3.49212L60.2712 3.49211L59.3979 3.00503ZM60.5861 0.874556L59.7145 0.384181L59.7127 0.387481L60.5861 0.874556ZM60.5406 1.36163L61.7288 3.49211L63.4755 2.51796L62.2873 0.387481L60.5406 1.36163ZM61.7288 3.49212C61.8466 3.70338 62.0133 3.87322 62.2037 3.99561L63.2853 2.31329C63.3548 2.35797 63.4238 2.42525 63.4755 2.51795L61.7288 3.49212ZM62.2037 3.99561C62.3937 4.11778 62.606 4.19222 62.8216 4.21991L63.0765 2.23623C63.1442 2.24493 63.2161 2.26883 63.2853 2.31329L62.2037 3.99561ZM62.8215 4.2199L65.4779 4.56159L65.7331 2.57794L63.0766 2.23624L62.8215 4.2199ZM65.478 4.56161C65.4006 4.55166 65.3168 4.52164 65.2382 4.463L66.4343 2.8601C66.2243 2.70336 65.9805 2.60974 65.733 2.57792L65.478 4.56161ZM65.2382 4.463C65.1588 4.40378 65.0833 4.31341 65.0387 4.1918L66.9163 3.50288C66.8185 3.23651 66.6452 3.01743 66.4343 2.8601L65.2382 4.463ZM65.0387 4.1918C64.9934 4.06841 64.9873 3.93135 65.0234 3.80214L66.9497 4.34009C67.027 4.06312 67.0147 3.77104 66.9163 3.50288L65.0387 4.1918ZM65.0234 3.80214C65.059 3.6745 65.1296 3.57538 65.2078 3.50794L66.5136 5.02283C66.7151 4.84919 66.8728 4.61548 66.9497 4.34009L65.0234 3.80214ZM65.2076 3.50815L63.285 5.16646L64.5913 6.68092L66.5139 5.02261L65.2076 3.50815ZM63.285 5.16645C62.9255 5.47657 62.7258 5.96414 62.8234 6.47291L64.7876 6.09618C64.8345 6.34072 64.7334 6.55837 64.5913 6.68092L63.285 5.16645ZM62.8238 6.4748L63.2776 8.81649L65.241 8.43598L64.7872 6.09429L62.8238 6.4748ZM63.2775 8.81631C63.2517 8.68265 63.2699 8.5474 63.3234 8.43105L65.1405 9.2665C65.2588 9.00921 65.296 8.7198 65.2411 8.43617L63.2775 8.81631ZM63.3234 8.43105C63.376 8.31658 63.4553 8.23516 63.5352 8.18383L64.6167 9.86616C64.8357 9.7254 65.0231 9.52191 65.1405 9.2665L63.3234 8.43105ZM63.5352 8.18383C63.6144 8.13289 63.6975 8.10875 63.7746 8.10382L63.9022 10.0997C64.1508 10.0839 64.3984 10.0065 64.6167 9.86616L63.5352 8.18383ZM63.7746 8.10382C63.8517 8.09889 63.9334 8.11244 64.0127 8.14935L63.1689 9.96265C63.4004 10.0704 63.6536 10.1156 63.9022 10.0997L63.7746 8.10382ZM64.0127 8.14936L61.6364 7.04355L60.7926 8.85684L63.1689 9.96265L64.0127 8.14936ZM61.6356 7.04319C61.4342 6.9497 61.2166 6.90343 61 6.90343V8.90343C60.9329 8.90343 60.8624 8.88925 60.7933 8.85719L61.6356 7.04319ZM61 6.90343C60.7834 6.90343 60.5658 6.9497 60.3644 7.04319L61.2067 8.85719C61.1376 8.88925 61.0671 8.90343 61 8.90343V6.90343ZM60.3636 7.04355L57.9873 8.14936L58.8311 9.96265L61.2074 8.85684L60.3636 7.04355ZM57.9873 8.14935C58.0666 8.11244 58.1483 8.09889 58.2254 8.10382L58.0978 10.0997C58.3464 10.1156 58.5996 10.0704 58.8311 9.96265L57.9873 8.14935ZM58.2254 8.10382C58.3025 8.10875 58.3856 8.13289 58.4648 8.18383L57.3833 9.86616C57.6016 10.0065 57.8492 10.0839 58.0978 10.0997L58.2254 8.10382ZM58.4648 8.18383C58.5447 8.23516 58.624 8.31658 58.6766 8.43105L56.8595 9.2665C56.9769 9.52191 57.1643 9.7254 57.3833 9.86616L58.4648 8.18383ZM58.6766 8.43105C58.7301 8.5474 58.7483 8.68265 58.7225 8.81631L56.7589 8.43617C56.704 8.7198 56.7412 9.00922 56.8595 9.2665L58.6766 8.43105ZM58.7224 8.81649L59.1762 6.4748L57.2128 6.09429L56.759 8.43598L58.7224 8.81649ZM59.1762 6.47487C59.2239 6.22891 59.2026 5.97691 59.1171 5.7445L57.24 6.43471C57.2008 6.32804 57.1904 6.20986 57.2128 6.09421L59.1762 6.47487ZM59.1171 5.7445C59.032 5.51314 58.8894 5.31668 58.7143 5.16588L57.4093 6.6815C57.3413 6.62291 57.2788 6.54033 57.24 6.43471L59.1171 5.7445ZM58.715 5.16646L56.7924 3.50815L55.4861 5.02261L57.4087 6.68092L58.715 5.16646ZM56.7922 3.50794C56.8704 3.57538 56.941 3.6745 56.9766 3.80214L55.0503 4.34009C55.1272 4.61548 55.2849 4.84919 55.4864 5.02283L56.7922 3.50794ZM56.9766 3.80214C57.0127 3.93135 57.0066 4.06841 56.9613 4.1918L55.0837 3.50288C54.9853 3.77104 54.973 4.06312 55.0503 4.34009L56.9766 3.80214ZM56.9613 4.1918C56.9167 4.31342 56.8411 4.40379 56.7618 4.463L55.5657 2.8601C55.3548 3.01742 55.1815 3.23651 55.0837 3.50288L56.9613 4.1918ZM56.7618 4.463C56.6832 4.52164 56.5994 4.55166 56.522 4.56161L56.267 2.57792C56.0195 2.60974 55.7757 2.70336 55.5657 2.8601L56.7618 4.463ZM56.5221 4.56159L59.1785 4.2199L58.9234 2.23624L56.2669 2.57794L56.5221 4.56159ZM59.1784 4.21991C59.394 4.19222 59.6063 4.11778 59.7963 3.99561L58.7147 2.31329C58.7839 2.26883 58.8558 2.24493 58.9235 2.23623L59.1784 4.21991ZM59.7963 3.99561C59.9867 3.87322 60.1534 3.70338 60.2712 3.49212L58.5245 2.51795C58.5762 2.42525 58.6452 2.35797 58.7147 2.31329L59.7963 3.99561ZM60.2712 3.49211L61.4594 1.36163L59.7127 0.387481L58.5245 2.51796L60.2712 3.49211ZM61.4576 1.36493C61.3314 1.58921 61.1214 1.64734 61.0005 1.64734C60.8797 1.64734 60.6675 1.589 60.5407 1.3619L62.2872 0.387214C61.9913 -0.142847 61.4504 -0.352661 61.0005 -0.352661C60.5506 -0.352661 60.0112 -0.143052 59.7145 0.384185L61.4576 1.36493Z" fill="#FC53EC" mask="url(#path-9-inside-5_140_63)"/>
</g>
</g>
</svg>
